<mxfile host="app.diagrams.net" modified="2023-10-26T17:13:10.074Z" agent="Mozilla/5.0 (Macintosh; Intel Mac OS X 10_15_7) AppleWebKit/605.1.15 (KHTML, like Gecko) Version/16.6 Safari/605.1.15" etag="SCm15KtTQG8bieEgGUtb" version="22.0.6" type="github" pages="2">
  <diagram name="Page-1" id="PwmN62a8UrZV5Mr-l5zS">
    <mxGraphModel>
      <root>
        <mxCell id="0" />
        <mxCell id="1" parent="0" />
      </root>
    </mxGraphModel>
  </diagram>
  <diagram id="gl3-oTLdmGawLcS6yREQ" name="Page-2">
    <mxGraphModel dx="1201" dy="552" grid="1" gridSize="10" guides="1" tooltips="1" connect="1" arrows="1" fold="1" page="1" pageScale="1" pageWidth="1600" pageHeight="1200" math="0" shadow="0">
      <root>
        <mxCell id="0" />
        <mxCell id="1" parent="0" />
      </root>
    </mxGraphModel>
  </diagram>
</mxfile>
